<?xml version="1.0" standalone="no"?>
<!DOCTYPE svg PUBLIC "-//W3C//DTD SVG 20010904//EN"
 "http://www.w3.org/TR/2001/REC-SVG-20010904/DTD/svg10.dtd">
<svg version="1.0" xmlns="http://www.w3.org/2000/svg"
 width="227.000000pt" height="227.000000pt" viewBox="0 0 227.000000 227.000000"
 preserveAspectRatio="xMidYMid meet">
<metadata>
Created by potrace 1.11, written by Peter Selinger 2001-2013
</metadata>
<g transform="translate(0.000000,227.000000) scale(0.100000,-0.100000)"
fill="#000000" stroke="none">
<path d="M20 2259 c0 -15 312 -621 333 -647 5 -7 11 -48 12 -90 1 -52 10 -98
24 -137 12 -33 31 -100 41 -150 10 -49 22 -98 25 -107 5 -13 0 -20 -18 -27
-40 -15 -60 -54 -53 -98 15 -81 37 -141 67 -179 17 -21 44 -67 59 -101 24 -54
65 -95 80 -82 2 2 19 -35 36 -83 17 -48 43 -103 57 -122 23 -29 123 -111 204
-166 l22 -15 -27 -31 c-18 -21 -39 -34 -63 -37 -44 -6 -46 -4 -85 58 -17 28
-78 124 -136 215 -57 91 -163 257 -235 370 -185 292 -325 511 -346 540 -16 23
-17 11 -17 -293 0 -205 4 -317 10 -317 6 0 10 -5 10 -11 0 -6 19 -34 43 -63
23 -29 69 -88 102 -131 298 -386 316 -407 335 -390 18 16 108 24 129 11 5 -4
29 2 53 12 23 11 49 17 56 15 47 -17 -51 -45 -160 -47 l-78 -1 -49 -50 c-52
-52 -76 -105 -48 -105 8 0 24 17 34 38 12 25 32 44 63 60 46 23 95 26 95 5 0
-25 17 -25 63 0 39 21 152 56 184 57 3 0 4 -36 1 -80 -4 -57 -3 -80 6 -80 6 0
11 15 11 33 1 45 26 157 38 169 7 7 19 4 36 -10 28 -22 116 -117 116 -125 0
-3 -16 0 -36 6 -34 10 -37 9 -77 -31 -31 -31 -37 -42 -24 -42 10 0 28 12 41
26 19 23 28 26 58 20 20 -4 47 -15 61 -26 35 -28 100 -26 161 5 62 31 77 31
106 0 22 -24 50 -33 50 -17 0 4 -16 22 -36 40 -31 29 -40 32 -72 26 l-37 -6
69 71 c53 53 73 68 83 60 19 -16 33 -76 33 -141 0 -32 4 -58 10 -58 6 0 10 33
10 80 0 44 2 80 4 80 33 0 155 -35 190 -55 47 -26 66 -26 66 1 0 18 31 18 73
0 36 -14 87 -69 87 -92 0 -8 9 -14 20 -14 19 0 20 1 5 37 -21 50 -41 71 -95
98 -42 21 -46 26 -58 81 -21 98 -48 209 -76 320 -26 100 -18 229 14 239 20 6
35 40 45 100 4 22 17 65 30 95 14 34 25 87 28 137 6 80 6 82 -22 112 -16 17
-39 31 -51 31 -21 0 -21 1 -18 208 2 181 0 212 -16 247 -28 62 -90 137 -139
168 -24 16 -49 39 -55 51 -18 40 -74 98 -128 132 -43 28 -53 39 -58 71 -4 21
-12 62 -18 91 l-11 52 -179 0 c-113 0 -178 -4 -178 -10 0 -6 4 -18 9 -28 5 -9
12 -25 15 -36 4 -11 12 -16 21 -12 9 3 35 -1 58 -9 67 -22 127 -36 195 -45 35
-4 69 -13 75 -20 24 -24 -130 2 -292 49 -90 27 -313 -65 -423 -175 -20 -20
-58 -115 -58 -145 0 -12 -22 -45 -49 -75 -28 -30 -56 -75 -67 -104 -14 -39
-20 -47 -27 -35 -12 23 25 97 77 153 29 32 46 60 50 87 10 56 48 135 65 135
18 0 10 31 -46 163 l-45 107 -224 0 c-159 0 -224 -3 -224 -11z m1097 -484 c21
-17 72 -68 112 -114 101 -117 143 -147 247 -176 32 -9 109 -285 125 -446 22
-236 -23 -391 -159 -549 l-30 -35 -7 30 c-11 49 -36 103 -59 124 -30 28 -89
51 -131 51 -38 0 -46 13 -17 29 13 7 14 13 6 21 -9 9 -19 3 -42 -21 l-30 -32
-41 24 c-31 17 -44 20 -53 11 -8 -8 -4 -14 18 -23 l29 -11 -38 -14 c-89 -31
-136 -96 -137 -185 0 -25 -3 -48 -6 -52 -10 -9 -117 76 -163 130 -52 61 -93
138 -127 238 -24 74 -26 95 -30 284 -3 195 -2 203 16 208 21 6 27 37 10 48 -5
3 -10 13 -10 22 0 10 5 13 18 8 48 -20 55 -19 49 6 -35 144 -37 163 -26 223
13 68 31 110 61 143 17 18 25 20 46 12 35 -14 74 -3 130 35 64 44 68 46 138
43 49 -2 68 -8 101 -32z m624 -587 c18 -33 6 -165 -18 -213 -12 -22 -27 -69
-33 -103 -18 -90 -34 -80 -25 16 5 42 7 84 6 92 -15 125 -14 129 19 160 32 30
36 56 5 30 -20 -16 -29 -8 -20 19 9 28 51 28 66 -1z m-1261 -133 c16 -19 5
-34 -20 -28 -30 8 -24 -7 8 -18 40 -14 62 -57 62 -121 0 -30 3 -58 7 -62 9 -8
43 -116 43 -136 0 -24 -25 8 -43 57 -9 23 -32 63 -51 88 -37 48 -66 127 -66
180 0 49 34 72 60 40z m763 -480 c38 -4 57 -11 54 -18 -4 -13 -78 -25 -212
-33 -74 -5 -88 -3 -77 7 19 20 124 56 152 53 14 -2 51 -6 83 -9z m397 -48 c0
-13 -9 -35 -20 -48 -11 -13 -23 -28 -27 -34 -32 -42 -63 -75 -63 -69 0 5 -5 3
-11 -3 -9 -9 13 -95 47 -177 7 -18 4 -19 -56 -13 -51 6 -70 13 -92 34 -25 24
-31 26 -48 15 -11 -7 -20 -11 -20 -10 0 2 58 62 128 135 71 72 135 145 142
162 15 37 20 39 20 8z m-370 -27 c-16 -12 -34 -17 -51 -13 -15 3 -35 0 -46 -6
-15 -8 -10 -10 27 -11 62 -1 33 -16 -49 -25 -57 -6 -63 -5 -58 9 5 13 -1 16
-33 16 -22 0 -40 4 -40 9 0 11 48 21 109 22 25 1 60 5 76 9 17 4 44 8 60 9
l30 1 -25 -20z m60 -47 c0 -39 -6 -68 -19 -89 -24 -40 -68 -50 -97 -23 -30 28
-82 25 -96 -6 -15 -33 -40 -39 -78 -20 -33 17 -53 54 -65 118 -6 30 -4 37 9
37 9 0 16 -5 16 -11 0 -18 68 -39 127 -39 77 0 152 27 172 62 24 41 31 34 31
-29z m352 -272 c17 4 35 6 39 3 38 -23 -57 -39 -107 -18 -19 8 -34 20 -34 28
0 11 7 10 35 -4 27 -14 43 -16 67 -9z m-642 -1 c75 -38 154 -37 253 5 39 16
13 -24 -64 -100 l-81 -80 -79 85 c-68 74 -93 110 -74 110 3 0 24 -9 45 -20z"/>
<path d="M1220 1316 c-67 -14 -80 -22 -80 -47 0 -32 28 -34 126 -9 l94 24 52
-23 c72 -31 88 -35 88 -23 0 16 -39 51 -82 73 -43 22 -113 24 -198 5z"/>
<path d="M783 1268 c-43 -8 -59 -17 -97 -58 -25 -27 -46 -54 -46 -59 0 -23 20
-18 56 13 52 45 102 57 194 50 62 -5 78 -4 88 9 10 12 11 21 2 36 -9 18 -20
21 -78 20 -37 -1 -90 -6 -119 -11z"/>
<path d="M1260 1161 c-29 -8 -70 -64 -70 -97 0 -19 7 -24 43 -29 23 -4 55 -2
70 4 16 6 45 11 66 11 25 0 44 7 56 20 16 18 17 23 4 47 -24 44 -98 64 -169
44z m49 -37 c-8 -10 -14 -27 -14 -38 0 -17 -7 -22 -37 -24 -32 -3 -38 0 -38
15 0 29 21 51 60 61 42 11 47 8 29 -14z m99 -28 c2 -11 -3 -16 -17 -16 -12 0
-21 3 -21 8 0 4 -3 18 -7 32 -6 24 -6 24 18 9 13 -9 25 -24 27 -33z"/>
<path d="M800 1098 c-82 -42 -94 -115 -19 -111 19 1 59 2 89 3 66 1 110 17
110 39 0 19 -26 60 -50 78 -24 19 -82 15 -130 -9z m58 -21 c-9 -7 -18 -24 -20
-37 -2 -21 -9 -26 -40 -28 -38 -3 -43 2 -32 33 8 19 58 44 89 44 18 0 18 -1 3
-12z m77 -7 c19 -21 14 -50 -10 -50 -9 0 -15 9 -15 21 0 12 -8 28 -17 35 -17
12 -17 13 3 14 11 0 29 -9 39 -20z"/>
<path d="M1122 1074 c15 -117 32 -201 44 -213 20 -21 24 -11 14 34 -13 60 -32
167 -34 189 0 11 -7 21 -15 24 -10 3 -12 -5 -9 -34z"/>
<path d="M1024 968 c4 -73 9 -135 12 -137 16 -16 23 36 18 124 -6 120 -11 145
-26 145 -8 0 -9 -36 -4 -132z"/>
<path d="M1226 773 c4 -10 7 -33 7 -50 -2 -37 11 -43 26 -14 14 24 -5 81 -26
81 -11 0 -13 -5 -7 -17z"/>
<path d="M982 758 c-17 -17 -15 -64 4 -82 19 -20 40 -11 23 10 -6 8 -9 28 -7
44 5 34 -3 45 -20 28z"/>
<path d="M1624 2238 c11 -65 35 -225 51 -333 9 -60 20 -126 26 -146 5 -20 9
-50 9 -67 0 -17 4 -33 8 -36 5 -3 12 -42 15 -87 11 -138 54 -369 69 -369 4 0
8 -32 8 -72 0 -63 19 -214 50 -388 11 -63 51 -323 75 -485 9 -60 21 -129 26
-152 5 -23 9 -56 9 -72 l0 -31 65 0 65 0 0 43 c0 24 -6 113 -14 198 -8 85 -22
233 -30 329 -8 96 -18 200 -21 230 -3 30 -12 134 -20 230 -9 96 -20 218 -25
270 -4 52 -13 151 -19 220 -6 69 -15 170 -21 225 -12 118 -39 423 -43 480 l-2
40 -143 3 -143 3 5 -33z m323 -750 c-3 -8 -6 -5 -6 6 -1 11 2 17 5 13 3 -3 4
-12 1 -19z"/>
<path d="M2193 2238 c4 -18 9 -168 12 -333 3 -165 10 -412 15 -550 6 -137 15
-441 22 -675 20 -774 24 -696 26 453 l2 1137 -41 0 c-41 0 -41 0 -36 -32z"/>
<path d="M0 112 l0 -112 106 0 106 0 -80 88 c-44 48 -92 98 -106 111 l-26 24
0 -111z"/>
</g>
</svg>
